# xmcd
#
# Track frame offsets:
#	150
#	15272
#	30376
#	40882
#	60537
#	77818
#	91617
#	107777
#	128331
#	149457
#	160131
#	170527
#
# Disc length: 2504 seconds
#
# Revision: 0
# Processed by: cddbd v1.5.2PL0 Copyright (c) Steve Scherf et al.
# Submitted via: audiograbber 1.83.01
#
DISCID=8509c60c
DTITLE=George Jones - Live With The Possum
DYEAR=1998
DGENRE=Country
TTITLE0=No Show Jones
TTITLE1=Once You've Had The Best
TTITLE2=The Race Is On
TTITLE3=Bartender's Blues
TTITLE4=A Picture Of Me (Without You)
TTITLE5=The One I Loved Back Then (The Corvette Song)
TTITLE6=Who's Gonna Fill Their Shoes
TTITLE7=She Loved A Lot In Her Time
TTITLE8=Medley
TTITLE9=One Woman Man
TTITLE10=Orange Blossum Special (Instrumental)
TTITLE11=He Stopped Loving Her Today
EXTD=
EXTT0=
EXTT1=
EXTT2=
EXTT3=
EXTT4=
EXTT5=
EXTT6=
EXTT7=
EXTT8=I'll Share My World With You/Window Up Above/The Grand Tour/Walk Through 
EXTT8=This World With Me
EXTT9=
EXTT10=
EXTT11=
PLAYORDER=
